<svg width="60" height="60" viewBox="0 0 60 60" fill="none" xmlns="http://www.w3.org/2000/svg">
<circle cx="30" cy="30" r="30" fill="white"/>
<path d="M19.0147 30L14.529 34.4917L10 30L14.5273 25.4683L19.0147 30ZM29.9809 19.0233L37.7068 26.7567L42.2358 22.2267L29.9809 10L17.7259 22.2667L22.2549 26.7967L29.9809 19.0233ZM45.4344 25.4683L40.947 30L45.4743 34.5317L50 30L45.4344 25.4683ZM29.9809 40.9767L22.2549 33.2033L17.7259 37.735L29.9809 50L42.2358 37.7333L37.7068 33.2033L29.9809 40.9767ZM29.9809 34.4933L34.5082 29.96L29.9809 25.47L25.4535 30L29.9809 34.4917V34.4933Z" fill="#E7BB41"/>
</svg>
