<svg width="60" height="60" viewBox="0 0 60 60" fill="none" xmlns="http://www.w3.org/2000/svg">
<circle cx="30" cy="30" r="30" fill="white"/>
<path fill-rule="evenodd" clip-rule="evenodd" d="M26.5528 14.5778C26.5528 13.7064 25.8464 13 24.975 13H21.2359C20.3646 13 19.6582 13.7064 19.6582 14.5778V18.3168C19.6582 19.1882 18.9518 19.8945 18.0804 19.8945H14.5778C13.7064 19.8945 13 20.6009 13 21.4723V44.5161C13 45.3874 13.7064 46.0939 14.5778 46.0939H18.3168C19.1882 46.0939 19.8946 45.3874 19.8946 44.5161V21.4723C19.8946 20.6009 20.6009 19.8946 21.4723 19.8946H24.975C25.8464 19.8946 26.5528 19.1882 26.5528 18.3168V14.5778ZM40.3419 14.5778C40.3419 13.7064 39.6354 13 38.7641 13H35.025C34.1536 13 33.4472 13.7064 33.4472 14.5778V18.3168C33.4472 19.1882 34.1536 19.8946 35.025 19.8946H38.5276C39.399 19.8946 40.1054 20.6009 40.1054 21.4723V44.5161C40.1054 45.3874 40.8119 46.0939 41.6831 46.0939H45.4222C46.2936 46.0939 47 45.3874 47 44.5161V21.4723C47 20.6009 46.2936 19.8945 45.4222 19.8945H41.9196C41.0482 19.8945 40.3419 19.1881 40.3419 18.3168V14.5778ZM33.4472 27.7758C33.4472 26.9046 32.7409 26.1981 31.8695 26.1981H28.1305C27.2591 26.1981 26.5528 26.9046 26.5528 27.7758V38.0155C26.5528 38.8869 27.2591 39.5932 28.1305 39.5932H31.8695C32.7409 39.5932 33.4472 38.8869 33.4472 38.0155V27.7758Z" fill="#5353D3"/>
</svg>
