<svg width="60" height="60" viewBox="0 0 60 60" fill="none" xmlns="http://www.w3.org/2000/svg">
<circle cx="30" cy="30" r="30" fill="white"/>
<path d="M30 8.48328L11 19.3358V41.0408L30 51.8933L49 41.0408V19.3358L30 8.48328ZM30 8.48328L11 19.3358V41.0408L30 51.8933L49 41.0408V19.3358L30 8.48328Z" fill="white"/>
<path d="M37.501 43.4147H34.7976L31.5611 40.4755V38.9682L34.9118 35.8029V30.7912L39.2906 27.965L44.2786 31.6956L37.501 43.4147ZM26.3066 35.5015L26.8016 30.7912L25.1643 26.5708H34.8357L33.2365 30.7912L33.6934 35.5015H29.9619H26.3066ZM28.515 40.4755L25.2786 43.4524H22.5371L15.7214 31.6956L20.7475 28.0027L25.1643 30.7912V35.8029L28.515 38.9682V40.4755ZM22.499 17.8662H37.4629L39.2525 25.4026H20.7475L22.499 17.8662ZM30 8.48328L11 19.3358V41.0408L30 51.8933L49 41.0408V19.3358L30 8.48328Z" fill="#03316C"/>
</svg>
