<svg width="55" height="54" viewBox="0 0 55 54" fill="none" xmlns="http://www.w3.org/2000/svg">
<path d="M27.5783 53.9581C13.8396 54.8127 0.285528 42.4909 0.502572 26.8014C0.713531 11.6235 12.2716 0 27.5377 0C42.8586 0 54.297 11.6702 54.4978 27.0531C54.6946 42.0951 41.534 54.7315 27.5763 53.9581H27.5783ZM27.6229 2.95358C14.7605 2.85005 3.64667 13.7671 3.48642 26.6614C3.32414 39.649 14.4177 50.9599 27.3937 51.039C40.2885 51.1182 51.3456 40.128 51.4957 27.0836C51.6458 14.1467 40.676 3.05913 27.6229 2.95358Z" fill="white"/>
<path d="M29.98 17.5428C29.8258 16.8384 29.6737 16.136 29.4932 15.3078C32.9152 14.3578 35.6008 12.4862 36.5806 9.04541C39.8585 11.3778 43.0249 13.6311 46.4997 16.1056C43.7268 25.6118 40.8545 35.4794 35.9639 44.7137C35.9639 41.4942 36.1952 38.2564 35.9132 35.0633C35.398 29.2353 33.2194 23.8559 30.8137 18.5801C30.6352 18.1883 30.2619 17.8838 29.978 17.5387V17.5428H29.98Z" fill="white"/>
<path d="M24.8195 15.5372C19.0202 24.3959 18.2819 34.6979 17.9695 45.1989C13.3872 35.7109 9.16196 26.1234 8.40332 15.5413C12.1255 14.0127 15.6591 12.5634 19.0993 11.1505C20.8235 12.472 22.7221 13.9295 24.8216 15.5372H24.8195Z" fill="white"/>
<path d="M29.9807 17.5388C28.7981 26.7162 29.5425 36.0986 27.0374 45.1319C26.7514 46.1651 26.4005 47.1821 25.6804 48.1626C25.5607 45.9905 25.5526 43.8063 25.297 41.6525C24.7676 37.1948 23.9765 32.7675 23.5525 28.3016C23.3294 25.957 23.658 23.5616 23.7351 21.1907C23.7757 19.924 24.2726 19.3962 25.6844 19.2033C27.1652 19.0003 28.5527 18.1254 29.9807 17.5428V17.5367V17.5388Z" fill="white"/>
</svg>
