<svg width="122" height="122" viewBox="0 0 122 122" fill="none" xmlns="http://www.w3.org/2000/svg">
    <circle cx="61" cy="61" r="60" fill="white"/>
    <path d="M25.29 57.7328C25.2901 57.0536 25.4244 56.3812 25.6851 55.754C25.9458 55.1269 26.3278 54.5575 26.8092 54.0784C27.2907 53.5993 27.8619 53.22 28.4903 52.9623C29.1187 52.7046 29.7918 52.5736 30.471 52.5768L39.061 52.6048C40.4305 52.6048 41.744 53.1489 42.7124 54.1173C43.6809 55.0857 44.225 56.3992 44.225 57.7688V90.2488C45.192 89.9618 46.434 89.6558 47.793 89.3358C48.737 89.1141 49.5783 88.5799 50.1805 87.8198C50.7826 87.0597 51.1102 86.1185 51.11 85.1488V44.8588C51.11 43.4891 51.654 42.1755 52.6224 41.2069C53.5908 40.2383 54.9043 39.6941 56.274 39.6938H64.881C66.2506 39.6941 67.5641 40.2383 68.5325 41.2069C69.5009 42.1755 70.045 43.4891 70.045 44.8588V82.2518C70.045 82.2518 72.2 81.3798 74.299 80.4938C75.0787 80.1641 75.7441 79.612 76.2122 78.9065C76.6803 78.2011 76.9302 77.3734 76.931 76.5268V31.9488C76.931 30.5794 77.4749 29.266 78.4431 28.2976C79.4113 27.3292 80.7245 26.7851 82.0939 26.7848H90.701C92.0706 26.7848 93.384 27.3288 94.3525 28.2973C95.3209 29.2657 95.865 30.5792 95.865 31.9488V68.6578C103.327 63.2498 110.889 56.7458 116.89 48.9248C117.761 47.7896 118.337 46.4565 118.567 45.0446C118.797 43.6327 118.674 42.1857 118.209 40.8328C115.431 32.8406 111.016 25.5162 105.245 19.3284C99.474 13.1407 92.4749 8.22572 84.6955 4.89819C76.9161 1.57067 68.5277 -0.0961912 60.0671 0.00428679C51.6065 0.104764 43.2601 1.97037 35.562 5.4817C27.8638 8.99304 20.9834 14.0728 15.3611 20.3959C9.7388 26.7189 5.49842 34.1461 2.91131 42.2021C0.324207 50.258 -0.552649 58.7653 0.336851 67.1796C1.22635 75.5939 3.86263 83.7298 8.07696 91.0668C8.81111 92.3324 9.8912 93.3623 11.1903 94.0354C12.4894 94.7085 13.9536 94.9969 15.411 94.8668C17.039 94.7238 19.066 94.5208 21.476 94.2378C22.5251 94.1187 23.4937 93.6178 24.1972 92.8305C24.9008 92.0432 25.2901 91.0246 25.291 89.9688L25.29 57.7328Z" fill="#21325B"/>
    <path d="M25.1021 109.828C34.1744 116.428 44.8959 120.39 56.0802 121.275C67.2646 122.159 78.4757 119.933 88.4731 114.841C98.4705 109.749 106.864 101.991 112.726 92.4247C118.587 82.8584 121.688 71.8569 121.685 60.6376C121.685 59.2376 121.62 57.8526 121.527 56.4756C99.308 89.6136 58.2831 105.106 25.104 109.823" fill="#979695"/>
</svg>
