<svg xmlns="http://www.w3.org/2000/svg" xmlns:xlink="http://www.w3.org/1999/xlink" width="60" height="60" viewBox="0 0 60 60">
<g transform="matrix(0.14018694 0 0 0.14018694 0 0)">
	<g>
        <path d="M192.5 -0.5C 199.167 -0.5 205.833 -0.5 212.5 -0.5C 212.5 70.1667 212.5 140.833 212.5 211.5C 177.086 150.336 141.419 89.3358 105.5 28.5C 132.435 12.6326 161.435 2.96595 192.5 -0.5z" stroke="none" fill="#CCDB39" fill-rule="nonzero" fill-opacity="0.99215686" />
	</g>
	<g>
        <path d="M212.5 -0.5C 219.833 -0.5 227.167 -0.5 234.5 -0.5C 264.994 2.99735 293.66 12.3307 320.5 27.5C 284.914 89.0037 249.58 150.67 214.5 212.5C 213.833 212.5 213.5 212.833 213.5 213.5C 213.167 213.5 212.833 213.5 212.5 213.5C 212.5 212.833 212.5 212.167 212.5 211.5C 212.5 140.833 212.5 70.1667 212.5 -0.5z" stroke="none" fill="#F5EA38" fill-rule="nonzero" fill-opacity="0.99215686" />
	</g>
	<g>
        <path d="M105.5 28.5C 141.419 89.3358 177.086 150.336 212.5 211.5C 212.5 212.167 212.5 212.833 212.5 213.5C 212.167 213.5 211.833 213.5 211.5 213.5C 150.501 177.665 89.1678 142.331 27.5 107.5C 46.1162 73.8838 72.1162 47.5504 105.5 28.5z" stroke="none" fill="#64AD45" fill-rule="nonzero" fill-opacity="0.99215686" />
	</g>
	<g>
        <path d="M320.5 27.5C 353.833 46.8333 380.167 73.1667 399.5 106.5C 337.969 142.098 276.302 177.431 214.5 212.5C 249.58 150.67 284.914 89.0037 320.5 27.5z" stroke="none" fill="#F7BA15" fill-rule="nonzero" fill-opacity="0.99215686" />
	</g>
	<g>
        <path d="M27.5 107.5C 89.1678 142.331 150.501 177.665 211.5 213.5C 140.833 213.5 70.1667 213.5 -0.5 213.5C -0.5 206.5 -0.5 199.5 -0.5 192.5C 2.25741 169.039 8.42408 146.372 18 124.5C 20.6874 118.448 23.8541 112.781 27.5 107.5z" stroke="none" fill="#0791CB" fill-rule="nonzero" fill-opacity="0.99215686" />
	</g>
	<g>
        <path d="M399.5 106.5C 414.669 133.34 424.003 162.006 427.5 192.5C 427.5 199.5 427.5 206.5 427.5 213.5C 356.167 213.5 284.833 213.5 213.5 213.5C 213.5 212.833 213.833 212.5 214.5 212.5C 276.302 177.431 337.969 142.098 399.5 106.5z" stroke="none" fill="#F7991C" fill-rule="nonzero" fill-opacity="0.99215686" />
	</g>
	<g>
        <path d="M-0.5 213.5C 70.1667 213.5 140.833 213.5 211.5 213.5C 150.501 249.335 89.1678 284.669 27.5 319.5C 19.1449 305.778 12.6449 291.112 8 275.5C 4.07517 261.918 1.24184 248.252 -0.5 234.5C -0.5 227.5 -0.5 220.5 -0.5 213.5z" stroke="none" fill="#3E5BA8" fill-rule="nonzero" fill-opacity="0.99215686" />
	</g>
	<g>
        <path d="M213.5 214.5C 213.5 214.167 213.5 213.833 213.5 213.5C 284.833 213.5 356.167 213.5 427.5 213.5C 427.5 220.5 427.5 227.5 427.5 234.5C 424.003 264.994 414.669 293.66 399.5 320.5C 337.5 285.167 275.5 249.833 213.5 214.5z" stroke="none" fill="#EE5422" fill-rule="nonzero" fill-opacity="0.99215686" />
	</g>
	<g>
        <path d="M211.5 213.5C 211.833 213.5 212.167 213.5 212.5 213.5C 177.588 275.665 141.921 337.332 105.5 398.5C 72.1162 379.45 46.1162 353.116 27.5 319.5C 89.1678 284.669 150.501 249.335 211.5 213.5z" stroke="none" fill="#462E90" fill-rule="nonzero" fill-opacity="0.99215686" />
	</g>
	<g>
        <path d="M213.5 215.5C 213.5 215.167 213.5 214.833 213.5 214.5C 275.5 249.833 337.5 285.167 399.5 320.5C 380.167 353.833 353.833 380.167 320.5 399.5C 284.818 338.131 249.152 276.798 213.5 215.5z" stroke="none" fill="#EB3323" fill-rule="nonzero" fill-opacity="0.99215686" />
	</g>
	<g>
        <path d="M212.5 213.5C 212.833 213.5 213.167 213.5 213.5 213.5C 213.5 213.833 213.5 214.167 213.5 214.5C 213.5 214.833 213.5 215.167 213.5 215.5C 213.5 286.167 213.5 356.833 213.5 427.5C 206.5 427.5 199.5 427.5 192.5 427.5C 161.435 424.034 132.435 414.367 105.5 398.5C 141.921 337.332 177.588 275.665 212.5 213.5z" stroke="none" fill="#7C3591" fill-rule="nonzero" fill-opacity="0.99215686" />
	</g>
	<g>
        <path d="M213.5 215.5C 249.152 276.798 284.818 338.131 320.5 399.5C 293.66 414.669 264.994 424.003 234.5 427.5C 227.5 427.5 220.5 427.5 213.5 427.5C 213.5 356.833 213.5 286.167 213.5 215.5z" stroke="none" fill="#A61D4A" fill-rule="nonzero" fill-opacity="0.99215686" />
	</g>
</g>
</svg>
