<?xml version="1.0"?>
<svg width="600" height="600" xmlns="http://www.w3.org/2000/svg" xmlns:svg="http://www.w3.org/2000/svg" enable-background="new 0 0 600 600" version="1.0" xml:space="preserve">
 <g class="layer">
  <title>Layer 1</title>
  <ellipse cx="299.88" cy="299.29" fill="#ffffff" id="svg_1" rx="298.5" ry="297.54"/>
  <path d="m292.4,138.9c31.9,-2.1 64.3,4.3 92.9,18.6c42.2,20.7 75.8,58.2 91.7,102.4c7,19.5 10.8,40.2 10.8,60.9l0,77c0,3.1 0.1,6.4 -0.6,9.4c-1.7,7.8 -7.2,14.6 -14.6,17.9c-5.1,2.4 -10.9,2.7 -16.3,1.8c-11.8,-2.2 -20.8,-13.2 -21,-25.1c-0.1,-23.9 0,-47.7 0,-71.7c0.2,-6.8 0.2,-14 -3.5,-20c-5.9,-11 -20.4,-16.3 -32,-11.6c-9.8,3.5 -17,13.4 -17.1,23.9c-0.1,24.3 0,48.5 0,72.7c0,4.5 0.2,9.2 -1.1,13.5c-2.5,8.5 -9.6,15.4 -18.1,17.8c-11.2,3.1 -24.1,-1.8 -29.8,-12.2c-3.9,-6.3 -3.6,-13.8 -3.5,-20.7c-0.1,-24.1 0.1,-48.2 -0.1,-72.3c-0.2,-12.2 -10.3,-23.2 -22.5,-24.8c-7.9,-1.2 -16.2,1.4 -21.9,7c-5.2,4.9 -8.1,11.9 -8.1,19l0,70.2c-0.1,5.9 0.6,12 -1.6,17.5c-3.5,10 -13.6,17.4 -24.3,17.1c-10.9,0.6 -21.6,-6.9 -25.1,-17.2c-1.9,-5.1 -1.5,-10.5 -1.5,-15.9c0,-24.2 0.1,-48.4 0,-72.7c-0.1,-12 -9.4,-22.9 -21.2,-25.1c-10.6,-2.3 -22.4,3.1 -27.8,12.7c-2.3,4 -3.5,8.6 -3.5,13.2l0,78.8c0.1,7.7 -3.5,15.2 -9.3,20.1c-8.9,7.8 -23.2,8.2 -32.6,1.1c-6.8,-4.6 -10.8,-12.5 -10.8,-20.7l0,-79.6c0.1,-30.1 7.7,-60.2 22,-86.6c11.8,-21.6 27.9,-40.9 47.2,-56.3c29.5,-23.7 66,-37.8 103.3,-40.1z" fill="#5741D9" id="svg_2" transform="matrix(1 0 0 1 0 0)"/>
 </g>
</svg>