<svg width="60" height="60" viewBox="0 0 60 60" fill="none" xmlns="http://www.w3.org/2000/svg">
<circle cx="30" cy="30" r="30" fill="#2B334E"/>
<g opacity="0.3">
<path fill-rule="evenodd" clip-rule="evenodd" d="M19.0842 33.554L16.919 31.3888C16.738 31.2079 16.5944 30.9931 16.4965 30.7567C16.3985 30.5203 16.3481 30.2669 16.3481 30.011C16.3481 29.7551 16.3985 29.5017 16.4965 29.2653C16.5944 29.0289 16.738 28.8141 16.919 28.6332L28.6203 16.9319C28.8012 16.7509 29.016 16.6073 29.2524 16.5093C29.4888 16.4114 29.7422 16.3609 29.9981 16.3609C30.254 16.3609 30.5074 16.4114 30.7438 16.5093C30.9802 16.6073 31.195 16.7509 31.3759 16.9319L33.5343 19.097C33.9784 19.5401 34.58 19.7889 35.2074 19.7889C35.8347 19.7889 36.4364 19.5401 36.8805 19.097L37.3827 18.5948C37.6037 18.3758 37.7791 18.1152 37.8988 17.828C38.0187 17.5409 38.0802 17.2328 38.0802 16.9217C38.0802 16.6106 38.0187 16.3025 37.8988 16.0154C37.7791 15.7282 37.6037 15.4676 37.3827 15.2486L33.6769 11.536C33.193 11.0492 32.6177 10.6629 31.9841 10.3993C31.3505 10.1357 30.6708 10 29.9845 10C29.2983 10 28.6187 10.1357 27.9851 10.3993C27.3513 10.6629 26.776 11.0492 26.2922 11.536L11.5231 26.3051C10.5483 27.2812 10.0007 28.6043 10.0007 29.9838C10.0007 31.3634 10.5483 32.6865 11.5231 33.6626L15.2358 37.3684C15.4547 37.5895 15.7153 37.7649 16.0025 37.8846C16.2897 38.0043 16.5977 38.0659 16.9088 38.0659C17.22 38.0659 17.528 38.0043 17.8152 37.8846C18.1023 37.7649 18.3629 37.5895 18.5819 37.3684L19.0842 36.8729C19.519 36.4301 19.7626 35.8342 19.7626 35.2134C19.7626 34.5928 19.519 33.9969 19.0842 33.554ZM48.4663 26.3051L44.7606 22.5993C44.3165 22.1562 43.7147 21.9074 43.0875 21.9074C42.4601 21.9074 41.8585 22.1562 41.4144 22.5993L40.9121 23.1083C40.4694 23.5512 40.2208 24.1518 40.2208 24.778C40.2208 25.4041 40.4694 26.0048 40.9121 26.4477L43.0705 28.6128C43.2515 28.7938 43.3951 29.0086 43.4931 29.245C43.591 29.4814 43.6414 29.7348 43.6414 29.9907C43.6414 30.2466 43.591 30.5 43.4931 30.7364C43.3951 30.9728 43.2515 31.1876 43.0705 31.3685L31.3759 43.0901C31.195 43.2711 30.9802 43.4146 30.7438 43.5127C30.5074 43.6107 30.254 43.661 29.9981 43.661C29.7422 43.661 29.4888 43.6107 29.2524 43.5127C29.016 43.4146 28.8012 43.2711 28.6203 43.0901L26.4552 40.925C26.0111 40.4819 25.4095 40.233 24.7821 40.233C24.1548 40.233 23.5531 40.4819 23.109 40.925L22.6068 41.4272C22.1637 41.8713 21.9149 42.473 21.9149 43.1003C21.9149 43.7276 22.1637 44.3293 22.6068 44.7733L26.2922 48.4792C27.2716 49.4532 28.5966 50 29.9778 50C31.3589 50 32.684 49.4532 33.6633 48.4792L48.4663 33.6965C48.9518 33.2112 49.3367 32.635 49.5994 32.001C49.8621 31.3669 49.9973 30.6871 49.9973 30.0008C49.9973 29.3144 49.8621 28.6348 49.5994 28.0007C49.3367 27.3666 48.9518 26.7904 48.4663 26.3051ZM31.5531 24.148L35.863 28.4579C36.7218 29.3167 36.7218 30.709 35.863 31.5678L31.5531 35.8777C30.6943 36.7365 29.302 36.7365 28.4432 35.8777L24.1333 31.5678C23.2746 30.709 23.2746 29.3167 24.1333 28.4579L28.4432 24.148C29.302 23.2892 30.6943 23.2892 31.5531 24.148Z" fill="url(#paint0_linear_3796_1128)"/>
</g>
<path d="M8.90891 34V25.2727H10.7541V32.4787H14.4956V34H8.90891ZM15.6664 34V32.6705L18.7729 29.794C19.0371 29.5384 19.2587 29.3082 19.4377 29.1037C19.6195 28.8991 19.7573 28.6989 19.851 28.5028C19.9448 28.304 19.9917 28.0895 19.9917 27.8594C19.9917 27.6037 19.9334 27.3835 19.8169 27.1989C19.7005 27.0114 19.5414 26.8679 19.3397 26.7685C19.138 26.6662 18.9093 26.6151 18.6536 26.6151C18.3865 26.6151 18.1536 26.669 17.9547 26.777C17.7559 26.8849 17.6025 27.0398 17.4945 27.2415C17.3865 27.4432 17.3326 27.6832 17.3326 27.9616H15.5811C15.5811 27.3906 15.7104 26.8949 15.9689 26.4744C16.2275 26.054 16.5897 25.7287 17.0556 25.4986C17.5215 25.2685 18.0584 25.1534 18.6664 25.1534C19.2914 25.1534 19.8354 25.2642 20.2985 25.4858C20.7644 25.7045 21.1266 26.0085 21.3851 26.3977C21.6436 26.7869 21.7729 27.233 21.7729 27.7358C21.7729 28.0653 21.7076 28.3906 21.5769 28.7116C21.449 29.0327 21.2203 29.3892 20.8908 29.7812C20.5613 30.1705 20.0968 30.6378 19.4973 31.1832L18.2232 32.4318V32.4915H21.888V34H15.6664ZM28.0105 27.7827C27.9764 27.4389 27.8301 27.1719 27.5716 26.9815C27.313 26.7912 26.9622 26.696 26.519 26.696C26.2179 26.696 25.9636 26.7386 25.7562 26.8239C25.5488 26.9062 25.3897 27.0213 25.2789 27.169C25.171 27.3168 25.117 27.4844 25.117 27.6719C25.1113 27.8281 25.144 27.9645 25.215 28.081C25.2889 28.1974 25.3897 28.2983 25.5176 28.3835C25.6454 28.4659 25.7931 28.5384 25.9608 28.6009C26.1284 28.6605 26.3074 28.7116 26.4977 28.7543L27.2818 28.9418C27.6625 29.027 28.0119 29.1406 28.3301 29.2827C28.6483 29.4247 28.9238 29.5994 29.1568 29.8068C29.3897 30.0142 29.5701 30.2585 29.698 30.5398C29.8287 30.821 29.8954 31.1435 29.8983 31.5071C29.8954 32.0412 29.7591 32.5043 29.4892 32.8963C29.2221 33.2855 28.8358 33.5881 28.3301 33.804C27.8272 34.017 27.2207 34.1236 26.5105 34.1236C25.8059 34.1236 25.1923 34.0156 24.6696 33.7997C24.1497 33.5838 23.7434 33.2642 23.4508 32.8409C23.161 32.4148 23.0091 31.8878 22.9949 31.2599H24.7804C24.8002 31.5526 24.8841 31.7969 25.0318 31.9929C25.1824 32.1861 25.3826 32.3324 25.6326 32.4318C25.8855 32.5284 26.171 32.5767 26.4892 32.5767C26.8017 32.5767 27.073 32.5312 27.3031 32.4403C27.536 32.3494 27.7164 32.223 27.8443 32.0611C27.9721 31.8991 28.036 31.7131 28.036 31.5028C28.036 31.3068 27.9778 31.142 27.8613 31.0085C27.7477 30.875 27.5801 30.7614 27.3585 30.6676C27.1397 30.5739 26.8713 30.4886 26.5531 30.4119L25.6028 30.1733C24.867 29.9943 24.286 29.7145 23.8599 29.3338C23.4338 28.9531 23.2221 28.4403 23.225 27.7955C23.2221 27.267 23.3627 26.8054 23.6468 26.4105C23.9338 26.0156 24.3272 25.7074 24.8272 25.4858C25.3272 25.2642 25.8954 25.1534 26.5318 25.1534C27.1795 25.1534 27.7449 25.2642 28.2278 25.4858C28.7136 25.7074 29.0914 26.0156 29.3613 26.4105C29.6312 26.8054 29.7704 27.2628 29.7789 27.7827H28.0105ZM34.0627 34.1278C33.3922 34.1278 32.8155 33.9858 32.3326 33.7017C31.8525 33.4148 31.4831 33.017 31.2246 32.5085C30.9689 32 30.8411 31.4148 30.8411 30.7528C30.8411 30.0824 30.9703 29.4943 31.2289 28.9886C31.4902 28.4801 31.861 28.0838 32.3411 27.7997C32.8212 27.5128 33.3922 27.3693 34.0542 27.3693C34.6252 27.3693 35.1252 27.473 35.5542 27.6804C35.9831 27.8878 36.3226 28.179 36.5726 28.554C36.8226 28.929 36.9604 29.3693 36.986 29.875H35.2729C35.2246 29.5483 35.0968 29.2855 34.8894 29.0866C34.6848 28.8849 34.4164 28.7841 34.084 28.7841C33.8027 28.7841 33.557 28.8608 33.3468 29.0142C33.1394 29.1648 32.9775 29.3849 32.861 29.6747C32.7445 29.9645 32.6863 30.3153 32.6863 30.7273C32.6863 31.1449 32.7431 31.5 32.8567 31.7926C32.9732 32.0852 33.1365 32.3082 33.3468 32.4616C33.557 32.6151 33.8027 32.6918 34.084 32.6918C34.2914 32.6918 34.4775 32.6491 34.6422 32.5639C34.8098 32.4787 34.9476 32.3551 35.0556 32.1932C35.1664 32.0284 35.2388 31.831 35.2729 31.6009H36.986C36.9576 32.1009 36.8212 32.5412 36.5769 32.9219C36.3354 33.2997 36.0016 33.5952 35.5755 33.8082C35.1493 34.0213 34.6451 34.1278 34.0627 34.1278ZM40.0147 34.1236C39.5971 34.1236 39.225 34.0511 38.8983 33.9062C38.5716 33.7585 38.313 33.5412 38.1227 33.2543C37.9352 32.9645 37.8414 32.6037 37.8414 32.1719C37.8414 31.8082 37.9082 31.5028 38.0417 31.2557C38.1752 31.0085 38.3571 30.8097 38.5872 30.6591C38.8173 30.5085 39.0787 30.3949 39.3713 30.3182C39.6667 30.2415 39.9764 30.1875 40.3002 30.1562C40.6809 30.1165 40.9877 30.0795 41.2207 30.0455C41.4537 30.0085 41.6227 29.9545 41.7278 29.8835C41.8329 29.8125 41.8855 29.7074 41.8855 29.5682V29.5426C41.8855 29.2727 41.8002 29.0639 41.6298 28.9162C41.4622 28.7685 41.2235 28.6946 40.9139 28.6946C40.5872 28.6946 40.3272 28.767 40.1341 28.9119C39.9409 29.054 39.813 29.233 39.7505 29.4489L38.0716 29.3125C38.1568 28.9148 38.3244 28.571 38.5744 28.2812C38.8244 27.9886 39.1468 27.7642 39.5417 27.608C39.9395 27.4489 40.3997 27.3693 40.9224 27.3693C41.286 27.3693 41.6341 27.4119 41.9664 27.4972C42.3017 27.5824 42.5985 27.7145 42.8571 27.8935C43.1184 28.0724 43.3244 28.3026 43.475 28.5838C43.6255 28.8622 43.7008 29.196 43.7008 29.5852V34H41.9792V33.0923H41.9281C41.823 33.2969 41.6824 33.4773 41.5062 33.6335C41.3301 33.7869 41.1184 33.9077 40.8713 33.9957C40.6241 34.081 40.3386 34.1236 40.0147 34.1236ZM40.5346 32.8707C40.8017 32.8707 41.0375 32.8182 41.242 32.7131C41.4466 32.6051 41.6071 32.4602 41.7235 32.2784C41.84 32.0966 41.8983 31.8906 41.8983 31.6605V30.9659C41.8414 31.0028 41.7633 31.0369 41.6639 31.0682C41.5673 31.0966 41.4579 31.1236 41.3358 31.1491C41.2136 31.1719 41.0914 31.1932 40.9693 31.2131C40.8471 31.2301 40.7363 31.2457 40.6369 31.2599C40.4238 31.2912 40.2377 31.3409 40.0787 31.4091C39.9196 31.4773 39.796 31.5696 39.7079 31.6861C39.6199 31.7997 39.5758 31.9418 39.5758 32.1122C39.5758 32.3594 39.6653 32.5483 39.8443 32.679C40.0261 32.8068 40.2562 32.8707 40.5346 32.8707ZM46.9245 30.2159V34H45.1092V27.4545H46.8393V28.6094H46.916C47.0609 28.2287 47.3038 27.9276 47.6447 27.706C47.9856 27.4815 48.399 27.3693 48.8848 27.3693C49.3393 27.3693 49.7356 27.4688 50.0737 27.6676C50.4118 27.8665 50.6745 28.1506 50.862 28.5199C51.0495 28.8864 51.1433 29.3239 51.1433 29.8324V34H49.3279V30.1562C49.3308 29.7557 49.2285 29.4432 49.0211 29.2188C48.8137 28.9915 48.5282 28.8778 48.1646 28.8778C47.9203 28.8778 47.7044 28.9304 47.5169 29.0355C47.3322 29.1406 47.1873 29.294 47.0822 29.4957C46.9799 29.6946 46.9274 29.9347 46.9245 30.2159Z" fill="white"/>
<defs>
<linearGradient id="paint0_linear_3796_1128" x1="33.743" y1="10.0156" x2="26.8708" y2="51.2491" gradientUnits="userSpaceOnUse">
<stop stop-color="#00FCB9"/>
<stop offset="1" stop-color="#FA00FF"/>
</linearGradient>
</defs>
</svg>
