<svg width="60" height="60" viewBox="0 0 60 60" fill="none" xmlns="http://www.w3.org/2000/svg">
<circle cx="30" cy="30" r="30" fill="#F3F3FA"/>
<circle cx="30" cy="30" r="29.5" stroke="#11141A" stroke-opacity="0.1"/>
<path opacity="0.6" d="M18.1343 20.3681C18.1343 19.1345 19.1343 18.1345 20.3679 18.1345H39.6325C40.8661 18.1345 41.8661 19.1345 41.8661 20.3681V39.6328C41.8661 40.8664 40.8661 41.8664 39.6325 41.8664H20.3679C19.1343 41.8664 18.1343 40.8664 18.1343 39.6328V20.3681Z" fill="#E10093"/>
<path opacity="0.5" d="M22.5186 24.7519C22.5186 23.5183 23.5186 22.5183 24.7521 22.5183H44.0168C45.2503 22.5183 46.2503 23.5183 46.2503 24.7519V44.0166C46.2503 45.2501 45.2503 46.2501 44.0168 46.2501H24.7521C23.5186 46.2501 22.5186 45.2501 22.5186 44.0166V24.7519Z" fill="#E10093"/>
<path opacity="0.9" d="M13.75 15.9836C13.75 14.75 14.75 13.75 15.9836 13.75H35.2482C36.4818 13.75 37.4818 14.75 37.4818 15.9836V35.2482C37.4818 36.4818 36.4818 37.4818 35.2482 37.4818H15.9836C14.75 37.4818 13.75 36.4818 13.75 35.2482V15.9836Z" fill="#E10093"/>
</svg>
