<svg width="60" height="60" viewBox="0 0 60 60" fill="none" xmlns="http://www.w3.org/2000/svg">
<circle cx="30" cy="30" r="30" fill="white"/>
<path d="M21.1983 23H8.29992C8.22038 23 8.14409 23.0316 8.08786 23.0879C8.03158 23.1441 8 23.2204 8 23.3V36.1984C8 36.2779 8.03158 36.3542 8.08786 36.4104C8.14409 36.4667 8.22038 36.4983 8.29992 36.4983H21.1983C21.2779 36.4983 21.3542 36.4667 21.4104 36.4104C21.4667 36.3542 21.4983 36.2779 21.4983 36.1984V23.3C21.4983 23.2204 21.4667 23.1441 21.4104 23.0879C21.3542 23.0316 21.2779 23 21.1983 23ZM16.9988 31.6989C16.9988 31.7785 16.9673 31.8548 16.911 31.911C16.8548 31.9673 16.7785 31.9989 16.6989 31.9989H12.7994C12.7198 31.9989 12.6435 31.9673 12.5873 31.911C12.531 31.8548 12.4995 31.7785 12.4995 31.6989V27.7994C12.4995 27.7198 12.531 27.6435 12.5873 27.5873C12.6435 27.531 12.7198 27.4995 12.7994 27.4995H16.6989C16.7785 27.4995 16.8548 27.531 16.911 27.5873C16.9673 27.6435 16.9988 27.7198 16.9988 27.7994V31.6989Z" fill="black"/>
<path d="M48.2024 27.4999H44.3029C44.1373 27.4999 44.0029 27.6342 44.0029 27.7999V31.6994C44.0029 31.8651 44.1373 31.9994 44.3029 31.9994H48.2024C48.3681 31.9994 48.5024 31.8651 48.5024 31.6994V27.7999C48.5024 27.6342 48.3681 27.4999 48.2024 27.4999Z" fill="black"/>
<path d="M43.7012 23.0004H39.8017C39.636 23.0004 39.5017 23.1346 39.5017 23.3003V27.1998C39.5017 27.3655 39.636 27.4998 39.8017 27.4998H43.7012C43.8669 27.4998 44.0012 27.3655 44.0012 27.1998V23.3003C44.0012 23.1346 43.8669 23.0004 43.7012 23.0004Z" fill="black"/>
<path d="M52.7 23.0004H48.8005C48.6348 23.0004 48.5005 23.1346 48.5005 23.3003V27.1998C48.5005 27.3655 48.6348 27.4998 48.8005 27.4998H52.7C52.8657 27.4998 52.9999 27.3655 52.9999 27.1998V23.3003C52.9999 23.1346 52.8657 23.0004 52.7 23.0004Z" fill="black"/>
<path d="M43.7012 31.9991H39.8017C39.636 31.9991 39.5017 32.1334 39.5017 32.2991V36.1986C39.5017 36.3643 39.636 36.4986 39.8017 36.4986H43.7012C43.8669 36.4986 44.0012 36.3643 44.0012 36.1986V32.2991C44.0012 32.1334 43.8669 31.9991 43.7012 31.9991Z" fill="black"/>
<path d="M52.7 31.9991H48.8005C48.6348 31.9991 48.5005 32.1334 48.5005 32.2991V36.1986C48.5005 36.3643 48.6348 36.4986 48.8005 36.4986H52.7C52.8657 36.4986 52.9999 36.3643 52.9999 36.1986V32.2991C52.9999 32.1334 52.8657 31.9991 52.7 31.9991Z" fill="black"/>
<path d="M36.9464 23.0004H33.0469C32.8813 23.0004 32.7469 23.1346 32.7469 23.3003V27.1998C32.7469 27.3655 32.8813 27.4998 33.0469 27.4998H36.9464C37.1121 27.4998 37.2464 27.3655 37.2464 27.1998V23.3003C37.2464 23.1346 37.1121 23.0004 36.9464 23.0004Z" fill="black"/>
<path d="M36.9464 31.9991H33.0469C32.8813 31.9991 32.7469 32.1334 32.7469 32.2991V36.1986C32.7469 36.3643 32.8813 36.4986 33.0469 36.4986H36.9464C37.1121 36.4986 37.2464 36.3643 37.2464 36.1986V32.2991C37.2464 32.1334 37.1121 31.9991 36.9464 31.9991Z" fill="black"/>
<path d="M32.7469 27.796C32.7469 27.7165 32.7153 27.6402 32.6591 27.5839C32.6028 27.5277 32.5265 27.4961 32.447 27.4961H28.2475V23.3C28.2475 23.2204 28.2159 23.1441 28.1596 23.0879C28.1034 23.0316 28.0271 23 27.9475 23H24.048C23.9684 23 23.8921 23.0316 23.8359 23.0879C23.7796 23.1441 23.748 23.2204 23.748 23.3V36.1916C23.748 36.2712 23.7796 36.3475 23.8359 36.4037C23.8921 36.46 23.9684 36.4915 24.048 36.4915H27.9475C28.0271 36.4915 28.1034 36.46 28.1596 36.4037C28.2159 36.3475 28.2475 36.2712 28.2475 36.1916V31.9955H32.447C32.5265 31.9955 32.6028 31.9639 32.6591 31.9077C32.7153 31.8514 32.7469 31.7751 32.7469 31.6955V27.796Z" fill="black"/>
</svg>
