<svg width="60" height="60" viewBox="0 0 60 60" fill="none" xmlns="http://www.w3.org/2000/svg">
<circle cx="30" cy="30" r="30" fill="#F3F3FA"/>
<circle cx="30" cy="30" r="29.5" stroke="#11141A" stroke-opacity="0.1"/>
<path d="M37.643 32.0452L32.5609 37.146C32.354 37.3541 32.2379 37.6356 32.2379 37.929C32.2379 38.2224 32.354 38.5039 32.5609 38.712L36.4444 42.6011C36.766 42.9153 37.1978 43.0912 37.6474 43.0912C38.097 43.0912 38.5288 42.9153 38.8504 42.6011L50.7537 30.8527C50.9109 30.6975 51.0358 30.5126 51.121 30.3088C51.2062 30.105 51.2501 29.8863 51.2501 29.6654C51.2501 29.4444 51.2062 29.2257 51.121 29.0219C51.0358 28.8181 50.9109 28.6332 50.7537 28.478L38.8515 16.7401C38.5299 16.4259 38.0981 16.25 37.6485 16.25C37.1989 16.25 36.7671 16.4259 36.4455 16.7401L32.562 20.6291C32.3551 20.8372 32.239 21.1187 32.239 21.4121C32.239 21.7056 32.3551 21.9871 32.562 22.1952L37.6441 27.296C37.9586 27.6064 38.2082 27.9761 38.3786 28.3838C38.5489 28.7915 38.6366 29.229 38.6365 29.6708C38.6364 30.1127 38.5485 30.5501 38.378 30.9577C38.2074 31.3653 37.9576 31.7349 37.643 32.0452Z" fill="#0A6E5C"/>
<path d="M22.3598 32.0452L27.4419 37.146C27.6488 37.3541 27.7649 37.6356 27.7649 37.929C27.7649 38.2224 27.6488 38.5039 27.4419 38.712L23.5584 42.6011C23.2368 42.9153 22.805 43.0912 22.3554 43.0912C21.9058 43.0912 21.474 42.9153 21.1524 42.6011L9.24636 30.8527C9.08913 30.6975 8.96429 30.5126 8.87908 30.3088C8.79388 30.105 8.75 29.8863 8.75 29.6654C8.75 29.4444 8.79388 29.2257 8.87908 29.0219C8.96429 28.8181 9.08913 28.6332 9.24636 28.478L21.1519 16.7401C21.4735 16.4259 21.9053 16.25 22.3548 16.25C22.8044 16.25 23.2362 16.4259 23.5578 16.7401L27.4414 20.6291C27.6482 20.8372 27.7643 21.1187 27.7643 21.4121C27.7643 21.7056 27.6482 21.9871 27.4414 22.1952L22.3598 27.2965C22.0454 27.6068 21.7957 27.9765 21.6253 28.3841C21.4549 28.7917 21.3671 29.2291 21.3671 29.6709C21.3671 30.1126 21.4549 30.55 21.6253 30.9576C21.7957 31.3652 22.0454 31.7349 22.3598 32.0452Z" fill="#21BF73"/>
<path d="M23.6929 30.6412C23.4357 30.3837 23.2911 30.0346 23.2911 29.6706C23.2911 29.3066 23.4357 28.9575 23.6929 28.7L29.031 23.3619C29.2885 23.1046 29.6376 22.9601 30.0016 22.9601C30.3656 22.9601 30.7148 23.1046 30.9723 23.3619L36.3103 28.7C36.5676 28.9575 36.7121 29.3066 36.7121 29.6706C36.7121 30.0346 36.5676 30.3837 36.3103 30.6412L30.9717 35.9787C30.7142 36.236 30.3651 36.3805 30.0011 36.3805C29.6371 36.3805 29.288 36.236 29.0305 35.9787L23.6929 30.6412Z" fill="#21BF73"/>
</svg>
