<svg width="60" height="60" viewBox="0 0 60 60" fill="none" xmlns="http://www.w3.org/2000/svg">
<path d="M30 60C46.5685 60 60 46.5685 60 30C60 13.4315 46.5685 0 30 0C13.4315 0 0 13.4315 0 30C0 46.5685 13.4315 60 30 60Z" fill="url(#paint0_linear_3796_1097)"/>
<path d="M48.9432 28.1661L40.4697 19.6925L40.4543 19.6771L40.4207 19.6478C40.3659 19.5982 40.3085 19.5515 40.2488 19.508C40.2069 19.4744 40.1649 19.4423 40.1202 19.4129C40.1006 19.3989 40.0811 19.3878 40.0601 19.3752C39.577 19.0588 38.9926 18.9356 38.4229 19.0301C37.8532 19.1247 37.3399 19.4299 36.9849 19.8854L23.8062 33.0654V21.3237C23.8062 20.7065 23.561 20.1145 23.1246 19.678C22.6881 19.2416 22.0961 18.9964 21.4789 18.9964C20.8616 18.9964 20.2696 19.2416 19.8332 19.678C19.3967 20.1145 19.1515 20.7065 19.1515 21.3237V33.0654L14.3402 28.2541C13.9004 27.8348 13.3141 27.6041 12.7064 27.6113C12.0988 27.6185 11.5181 27.8631 11.0884 28.2928C10.6587 28.7225 10.4141 29.3032 10.4069 29.9108C10.3997 30.5184 10.6304 31.1048 11.0497 31.5446L19.8336 40.3285C19.8888 40.3844 19.9472 40.4371 20.0084 40.4864C20.0671 40.534 20.1286 40.5801 20.1901 40.6262C20.5075 40.8319 20.8702 40.9571 21.2468 40.9911H21.2566C21.3321 40.998 21.4076 41.0022 21.4831 41.0022H21.518C21.5814 41.0022 21.6443 40.9994 21.7067 40.9938H21.7529C21.813 40.9869 21.8731 40.9799 21.9318 40.9673H21.9583C22.024 40.9533 22.0897 40.9379 22.154 40.9184H22.1652C22.2354 40.8972 22.3044 40.8725 22.3721 40.8443C22.4685 40.8044 22.5619 40.7577 22.6516 40.7045L22.7048 40.6738C22.7927 40.62 22.8768 40.5602 22.9564 40.4948L22.9801 40.4739C23.0291 40.4319 23.078 40.39 23.1199 40.3425L36.4831 26.9709V38.6763C36.4831 39.2935 36.7283 39.8855 37.1647 40.322C37.6012 40.7584 38.1932 41.0036 38.8104 41.0036C39.4277 41.0036 40.0197 40.7584 40.4561 40.322C40.8926 39.8855 41.1378 39.2935 41.1378 38.6763V26.9346L45.6528 31.4579C46.091 31.8858 46.6803 32.1236 47.2928 32.1198C47.9052 32.1161 48.4915 31.871 48.9245 31.4378C49.3575 31.0047 49.6023 30.4183 49.6058 29.8058C49.6093 29.1933 49.3713 28.6042 48.9432 28.1661Z" fill="white"/>
<defs>
<linearGradient id="paint0_linear_3796_1097" x1="4.01454" y1="14.9972" x2="55.9855" y2="45.0014" gradientUnits="userSpaceOnUse">
<stop offset="0.13" stop-color="#348BED"/>
<stop offset="0.31" stop-color="#2B80E8"/>
<stop offset="0.64" stop-color="#1461DB"/>
<stop offset="0.72" stop-color="#0E57D7"/>
</linearGradient>
</defs>
</svg>
