<svg width="60" height="60" viewBox="0 0 60 60" fill="none" xmlns="http://www.w3.org/2000/svg">
<circle cx="30" cy="30" r="30" fill="#060606"/>
<path d="M18.5028 14.3401C16.7073 16.2307 16.4978 19.4112 17.8742 23.7962C19.054 27.5499 21.1396 31.2854 22.2775 33.1761C22.4548 33.4658 22.7965 34.0116 23.1027 34.5026C23.3541 34.905 23.0028 35.4022 22.516 35.3381C21.2524 35.1704 19.328 34.899 18.3609 34.6794C16.1625 34.155 13.919 33.4779 12.4039 32.0935C11.7463 31.4745 11.453 30.8007 11.5368 30.0902C11.64 29.1966 12.3556 28.2818 13.5064 27.5835C14.3155 27.0743 15.3147 26.6199 16.5558 26.19L16.1561 25.0769C14.4863 25.6014 12.5973 26.318 11.2403 27.6445C9.59305 29.2149 9.58661 31.5264 11.2209 33.1426C13.0551 34.9294 15.4211 35.698 17.8871 36.3902C19.5278 36.8201 21.2782 37.1525 23.2413 37.4056C24.3534 37.6251 25.5106 36.9299 25.7652 35.8869C25.8911 35.4204 25.8297 34.905 25.5976 34.4751V34.4659C25.5976 34.4659 25.5815 34.4447 25.5751 34.4294C25.5622 34.408 25.5557 34.3928 25.5494 34.3836L25.0916 33.5999C22.9351 29.895 20.3885 24.9977 19.8308 19.957C19.6568 17.7859 20.0533 16.4655 21.0139 16.0294C22.1679 15.5019 24.0987 16.313 26.3101 18.2555L28.4731 15.941C27.6736 15.3037 26.5808 14.4864 25.2366 13.8339C24.1148 13.2728 22.8835 12.977 21.7585 13.0014C20.4594 13.0319 19.3312 13.4954 18.5028 14.337V14.3401Z" fill="#84DBD6"/>
<path d="M20.6526 47.5081C23.2797 48.0326 26.3001 46.6147 29.6235 43.2969C32.4699 40.4548 34.8456 36.878 36.0093 34.9996C36.1865 34.7099 36.5154 34.1579 36.8087 33.6608C37.0505 33.2523 37.6823 33.2919 37.866 33.7249C38.343 34.841 39.0587 36.5548 39.3423 37.4574C39.9613 39.5217 40.461 41.696 39.9549 43.6323C39.7163 44.4801 39.2457 45.0564 38.5526 45.3461C37.6823 45.709 36.4863 45.5778 35.2744 44.9832C34.404 44.5746 33.4885 43.9831 32.4764 43.181L31.6575 44.0653C32.9727 45.1723 34.5749 46.3615 36.467 46.8099C38.7266 47.3739 40.8477 46.2243 41.5118 44.0744C42.2306 41.6777 41.7536 39.3571 41.154 36.9909C40.7285 35.4325 40.1547 33.8316 39.4068 32.0966C39.0522 31.075 37.8371 30.4773 36.7538 30.7884C36.264 30.9165 35.8224 31.2244 35.5451 31.6331L35.5387 31.6391C35.5387 31.6391 35.5226 31.6605 35.5161 31.6727C35.5 31.694 35.4935 31.7062 35.487 31.7153L35.0004 32.4807C32.689 36.1003 29.4785 40.6349 25.1429 43.6111C23.2443 44.8398 21.8356 45.1723 20.9556 44.6081C19.8951 43.925 19.6727 41.94 20.3464 39.1589L17.1454 38.546C16.9617 39.5217 16.7586 40.8238 16.836 42.2509C16.8779 43.4494 17.2228 44.6081 17.8095 45.5138C18.4896 46.5627 19.4728 47.2551 20.659 47.5142L20.6526 47.5081Z" fill="#84DBD6"/>
<path d="M49.8091 28.7178C48.9742 26.3028 46.1698 24.5372 41.4667 23.476C37.4406 22.5673 32.9792 22.4056 30.6777 22.3934C30.3263 22.3934 29.6525 22.3996 29.0498 22.4087C28.5566 22.4148 28.2762 21.8781 28.5792 21.5091C29.3625 20.5577 30.5745 19.1184 31.2612 18.4354C32.8406 16.8985 34.5813 15.3982 36.6056 14.8462C37.5018 14.6175 38.2658 14.7151 38.875 15.139C39.6422 15.6696 40.1192 16.7155 40.1837 18.0054C40.2449 18.9233 40.1611 19.9692 39.9323 21.2011L41.1507 21.4298C41.5054 19.7984 41.7955 17.8926 41.2572 16.1178C40.6446 13.9833 38.5302 12.8215 36.2318 13.352C33.6787 13.9619 31.7929 15.5141 29.9265 17.1882C28.7113 18.3164 27.5316 19.585 26.3195 21.067C25.562 21.869 25.6233 23.1649 26.4485 23.8937C26.8127 24.2292 27.3123 24.4365 27.8249 24.4609H27.8345C27.8345 24.4609 27.8603 24.4609 27.8797 24.4609C27.9055 24.4609 27.9216 24.4609 27.9345 24.4609L28.879 24.4762C33.3467 24.5616 39.1038 24.9244 43.9971 26.9858C46.0698 27.928 47.0819 28.916 47.0014 29.9193C46.9047 31.1268 45.1994 32.3039 42.3176 33.1455L43.3556 36.076C44.342 35.7406 45.6347 35.2527 46.9015 34.4781C47.9781 33.8469 48.8646 32.984 49.4029 32.0509C50.0251 30.9683 50.1637 29.8156 49.8059 28.7148L49.8091 28.7178Z" fill="#84DBD6"/>
</svg>
