<svg width="54" height="54" viewBox="0 0 54 54" fill="none" xmlns="http://www.w3.org/2000/svg">
<rect width="54" height="54" rx="27" fill="#11141A"/>
<path d="M16.9793 15.0563L8.04908 22.1368C7.92114 22.2382 7.92114 22.431 8.04908 22.5324L26.8306 37.4237C26.924 37.4974 27.0571 37.4974 27.1504 37.4237L45.932 22.5324C46.0599 22.431 46.0599 22.2382 45.932 22.1368L37.0019 15.0563C36.8342 14.9232 36.586 15.0411 36.586 15.2541V38.0577C36.586 38.1972 36.4709 38.3113 36.3301 38.3113H17.6509C17.5102 38.3113 17.3951 38.1972 17.3951 38.0577V15.2541C17.3951 15.0411 17.1469 14.9232 16.9793 15.0563Z" fill="#FF5A44"/>
</svg>
