<svg width="55" height="54" viewBox="0 0 55 54" fill="none" xmlns="http://www.w3.org/2000/svg">
<path d="M53.8385 27.3511C53.8385 34.3579 51.055 41.0778 46.1004 46.0325C41.1458 50.9871 34.4259 53.7705 27.419 53.7705C20.4121 53.7705 13.6922 50.9871 8.7376 46.0325C3.78299 41.0778 0.999512 34.3579 0.999512 27.3511C0.999512 20.3424 3.7837 13.6208 8.73958 8.66487C13.6955 3.70899 20.4171 0.924805 27.4258 0.924805C34.4344 0.924805 41.1561 3.70899 46.1119 8.66487C51.0678 13.6208 53.852 20.3424 53.852 27.3511H53.8385Z" fill="#367EC7"/>
<path d="M34.3581 9.88208L30.3486 13.7971L36.1131 19.5211H21.6141L21.3036 19.8316L8.33008 32.7376L21.3171 45.6436L25.4346 41.5396L19.7376 35.8696L34.2366 35.5726H34.4796L47.3451 22.7881L34.3581 9.88208ZM33.1971 28.9306L19.8591 29.1736L23.0721 25.9876H36.1131L33.1971 28.9441V28.9306Z" fill="white"/>
</svg>
